<svg width="195" height="62" viewBox="0 0 195 62" fill="none" xmlns="http://www.w3.org/2000/svg">
<g filter="url(#filter0_dd_10447_37517)">
<rect x="15" y="15" width="32" height="32" rx="8" fill="url(#paint0_linear_10447_37517)"/>
<g clip-path="url(#clip0_10447_37517)">
<path d="M31.0315 39.7376C25.1717 39.7376 22 36.0806 22 31.3594C22 26.3141 25.5715 22.2656 31.957 22.2656C36.6175 22.2656 40 25.2941 40 29.4664C40 36.0004 32.2525 37.7254 32.641 33.9979C32.1085 34.8289 31.2505 35.7634 29.6013 35.7634C27.7143 35.7634 26.5412 34.3819 26.5412 32.1581C26.5412 28.8251 28.732 26.0089 31.3255 26.0089C32.5698 26.0089 33.4255 26.6659 33.7833 27.6746L34.1312 26.4506H35.8848C35.7018 27.0746 34.144 32.8459 34.144 32.8459C33.658 34.8454 35.1565 34.8806 36.4855 33.8186C38.9822 31.8836 39.1113 26.8234 35.737 24.7129C32.1212 22.5446 23.8907 23.8864 23.8907 31.2326C23.8907 35.4409 26.8533 38.2684 31.2625 38.2684C33.8395 38.2684 35.419 37.5709 36.7338 36.8074L37.6165 38.0809C36.3333 38.8054 34.2707 39.7376 31.0315 39.7376ZM29.2735 29.0089C28.7372 30.0139 28.3907 31.3159 28.3907 32.3269C28.3907 35.0344 31.0322 35.0516 32.3297 32.5061C32.8637 31.4606 33.208 30.1279 33.208 29.1094C33.208 26.9216 30.5868 26.5339 29.2735 29.0089Z" fill="black"/>
</g>
</g>
<path d="M64.0732 36V28.8086H65.3447V36H64.0732ZM63.916 26.6348C63.916 26.4206 63.9844 26.2406 64.1211 26.0947C64.2578 25.9489 64.4538 25.876 64.709 25.876C64.9642 25.876 65.1602 25.9489 65.2969 26.0947C65.4336 26.2406 65.502 26.4206 65.502 26.6348C65.502 26.849 65.4336 27.029 65.2969 27.1748C65.1602 27.3206 64.9642 27.3936 64.709 27.3936C64.4538 27.3936 64.2578 27.3206 64.1211 27.1748C63.9844 27.029 63.916 26.849 63.916 26.6348ZM67.4297 36V28.8086H68.5781L68.6328 29.7314H68.6738C68.9336 29.4033 69.2503 29.1458 69.624 28.959C70.0023 28.7676 70.4193 28.6719 70.875 28.6719C71.5996 28.6719 72.1761 28.8792 72.6045 29.2939C73.0374 29.7041 73.2539 30.3923 73.2539 31.3584V36H71.9824V31.3447C71.9824 30.7705 71.8525 30.3604 71.5928 30.1143C71.3376 29.8636 70.973 29.7383 70.499 29.7383C70.0934 29.7383 69.7357 29.8477 69.4258 30.0664C69.1159 30.2852 68.8743 30.5677 68.7012 30.9141V36H67.4297ZM75.5371 36V27.7969C75.5371 27.0039 75.7536 26.4001 76.1865 25.9854C76.6195 25.5706 77.2096 25.3633 77.957 25.3633C78.1029 25.3633 78.251 25.3724 78.4014 25.3906C78.5518 25.4089 78.6953 25.4362 78.832 25.4727L78.7637 26.498C78.6634 26.4798 78.5563 26.4639 78.4424 26.4502C78.3285 26.4365 78.2122 26.4297 78.0938 26.4297C77.6836 26.4297 77.3669 26.5436 77.1436 26.7715C76.9202 26.9993 76.8086 27.3411 76.8086 27.7969V29.2188V29.3691V36H75.5371ZM74.3682 29.7793V28.8086H76.0156H76.3301H78.3672V29.7793H74.3682ZM78.8799 32.5137V32.2949C78.8799 31.2103 79.1875 30.3239 79.8027 29.6357C80.418 28.9476 81.2406 28.6035 82.2705 28.6035C83.3005 28.6035 84.123 28.9476 84.7383 29.6357C85.3535 30.3239 85.6611 31.2103 85.6611 32.2949V32.5137C85.6611 33.5983 85.3535 34.4847 84.7383 35.1729C84.123 35.861 83.3005 36.2051 82.2705 36.2051C81.2406 36.2051 80.418 35.861 79.8027 35.1729C79.1875 34.4847 78.8799 33.5983 78.8799 32.5137ZM80.1787 32.2949V32.5137C80.1787 33.2565 80.3542 33.8854 80.7051 34.4004C81.056 34.9108 81.5778 35.166 82.2705 35.166C82.9632 35.166 83.485 34.9108 83.8359 34.4004C84.1868 33.8854 84.3623 33.2565 84.3623 32.5137V32.2949C84.3623 31.5521 84.1868 30.9255 83.8359 30.415C83.485 29.9001 82.9632 29.6426 82.2705 29.6426C81.5778 29.6426 81.056 29.9001 80.7051 30.415C80.3542 30.9255 80.1787 31.5521 80.1787 32.2949ZM90.4463 33.2656C90.4463 31.9896 90.7812 30.9277 91.4512 30.0801C92.1257 29.2324 92.8958 28.8086 93.7617 28.8086C94.1719 28.8086 94.5479 28.8861 94.8896 29.041C95.2314 29.1914 95.5163 29.3555 95.7441 29.5332H96.3594L95.5391 33.6074C95.4297 34.1543 95.4707 34.5348 95.6621 34.749C95.8535 34.9632 96.1315 35.0703 96.4961 35.0703C97.1341 35.0703 97.6536 34.7467 98.0547 34.0996C98.4557 33.4525 98.6562 32.6048 98.6562 31.5566C98.6562 30.3262 98.2279 29.2438 97.3711 28.3096C96.5143 27.3753 95.3112 26.9082 93.7617 26.9082C92.2122 26.9082 90.9134 27.4893 89.8652 28.6514C88.8171 29.8135 88.293 31.2148 88.293 32.8555C88.293 34.4961 88.7487 35.7607 89.6602 36.6494C90.5716 37.5381 91.7109 37.9824 93.0781 37.9824C93.7161 37.9824 94.2562 37.9209 94.6982 37.7979C95.1403 37.6748 95.5117 37.5312 95.8125 37.3672V38.4336C95.4935 38.6341 95.1175 38.7868 94.6846 38.8916C94.2516 38.9964 93.7161 39.0488 93.0781 39.0488C91.4375 39.0488 90.0179 38.4951 88.8193 37.3877C87.6208 36.2803 87.0215 34.7695 87.0215 32.8555C87.0215 30.9414 87.6891 29.2939 89.0244 27.9131C90.3597 26.5322 91.9388 25.8418 93.7617 25.8418C95.5846 25.8418 97.0612 26.3955 98.1914 27.5029C99.3216 28.6104 99.8867 29.9616 99.8867 31.5566C99.8867 32.8783 99.5723 33.9492 98.9434 34.7695C98.3145 35.5898 97.5443 36 96.6328 36C96.1042 36 95.6416 35.8861 95.2451 35.6582C94.8486 35.4303 94.5592 35.1341 94.377 34.7695C94.1491 35.1341 93.8757 35.4303 93.5566 35.6582C93.2376 35.8861 92.8958 36 92.5312 36C91.8932 36 91.3851 35.7493 91.0068 35.248C90.6331 34.7467 90.4463 34.0859 90.4463 33.2656ZM91.7451 33.2656C91.7451 33.8125 91.8408 34.2272 92.0322 34.5098C92.2282 34.7923 92.5085 34.9336 92.873 34.9336C93.1921 34.9336 93.4792 34.8151 93.7344 34.5781C93.9941 34.3411 94.1855 33.9264 94.3086 33.334L94.9922 30.0527C94.8555 29.9616 94.696 29.891 94.5137 29.8408C94.3314 29.7907 94.1491 29.7656 93.9668 29.7656C93.3242 29.7656 92.7933 30.0983 92.374 30.7637C91.9548 31.429 91.7451 32.263 91.7451 33.2656ZM101.247 32.5137V32.2949C101.247 31.2103 101.555 30.3239 102.17 29.6357C102.785 28.9476 103.608 28.6035 104.638 28.6035C105.668 28.6035 106.49 28.9476 107.105 29.6357C107.721 30.3239 108.028 31.2103 108.028 32.2949V32.5137C108.028 33.5983 107.721 34.4847 107.105 35.1729C106.49 35.861 105.668 36.2051 104.638 36.2051C103.608 36.2051 102.785 35.861 102.17 35.1729C101.555 34.4847 101.247 33.5983 101.247 32.5137ZM102.546 32.2949V32.5137C102.546 33.2565 102.721 33.8854 103.072 34.4004C103.423 34.9108 103.945 35.166 104.638 35.166C105.33 35.166 105.852 34.9108 106.203 34.4004C106.554 33.8854 106.729 33.2565 106.729 32.5137V32.2949C106.729 31.5521 106.554 30.9255 106.203 30.415C105.852 29.9001 105.33 29.6426 104.638 29.6426C103.945 29.6426 103.423 29.9001 103.072 30.415C102.721 30.9255 102.546 31.5521 102.546 32.2949ZM109.156 33.8809H110.428V33.915C110.428 34.3298 110.58 34.6419 110.886 34.8516C111.191 35.0612 111.594 35.166 112.096 35.166C112.597 35.166 112.991 35.0658 113.278 34.8652C113.57 34.6647 113.716 34.4049 113.716 34.0859C113.716 33.7669 113.6 33.5231 113.367 33.3545C113.135 33.1813 112.631 33.0036 111.856 32.8213C111.082 32.639 110.466 32.3838 110.011 32.0557C109.555 31.723 109.327 31.2604 109.327 30.668C109.327 30.0755 109.571 29.5833 110.059 29.1914C110.551 28.7995 111.207 28.6035 112.027 28.6035C112.848 28.6035 113.508 28.7995 114.01 29.1914C114.511 29.5788 114.762 30.1051 114.762 30.7705V30.8047H113.497V30.7432C113.497 30.4014 113.376 30.1325 113.135 29.9365C112.898 29.7406 112.529 29.6426 112.027 29.6426C111.526 29.6426 111.159 29.7337 110.927 29.916C110.699 30.0983 110.585 30.3262 110.585 30.5996C110.585 30.873 110.717 31.0895 110.981 31.249C111.246 31.4085 111.765 31.5794 112.54 31.7617C113.315 31.944 113.912 32.2061 114.331 32.5479C114.755 32.8896 114.967 33.3796 114.967 34.0176C114.967 34.6556 114.728 35.1797 114.249 35.5898C113.771 36 113.053 36.2051 112.096 36.2051C111.139 36.2051 110.41 35.9977 109.908 35.583C109.407 35.1637 109.156 34.6077 109.156 33.915V33.8809ZM116.525 36V28.8086H117.674L117.729 29.7314H117.77C118.025 29.4079 118.332 29.1504 118.692 28.959C119.057 28.7676 119.46 28.6719 119.902 28.6719C120.385 28.6719 120.802 28.7676 121.153 28.959C121.504 29.1504 121.771 29.4603 121.953 29.8887H121.994C122.295 29.4603 122.628 29.1504 122.992 28.959C123.357 28.7676 123.776 28.6719 124.25 28.6719C124.997 28.6719 125.581 28.8792 126 29.2939C126.419 29.7041 126.629 30.3923 126.629 31.3584V36H125.357V31.3447C125.357 30.7705 125.234 30.3604 124.988 30.1143C124.742 29.8636 124.394 29.7383 123.942 29.7383C123.55 29.7383 123.206 29.8477 122.91 30.0664C122.618 30.2852 122.386 30.5677 122.213 30.9141V36H120.941V31.3447C120.941 30.7705 120.818 30.3604 120.572 30.1143C120.326 29.8636 119.978 29.7383 119.526 29.7383C119.134 29.7383 118.79 29.8477 118.494 30.0664C118.202 30.2852 117.97 30.5677 117.797 30.9141V36H116.525ZM128.584 36V28.8086H129.732L129.787 29.7314H129.828C130.01 29.4307 130.25 29.1686 130.546 28.9453C130.842 28.7174 131.195 28.6035 131.605 28.6035C131.706 28.6035 131.811 28.6149 131.92 28.6377C132.029 28.6605 132.107 28.681 132.152 28.6992V29.875C132.061 29.8568 131.965 29.8431 131.865 29.834C131.765 29.8249 131.656 29.8203 131.537 29.8203C131.127 29.8203 130.778 29.9274 130.491 30.1416C130.204 30.3558 129.992 30.6224 129.855 30.9414V36H128.584ZM132.699 29.7793V28.8086H136.801V29.7793H132.699ZM133.984 34.2227V29.3965V29.1914V27.0312H135.256V34.2227C135.256 34.5417 135.32 34.7695 135.447 34.9062C135.575 35.043 135.775 35.1113 136.049 35.1113C136.176 35.1113 136.302 35.0977 136.425 35.0703C136.548 35.043 136.673 35.0065 136.801 34.9609V36C136.682 36.0547 136.527 36.1025 136.336 36.1436C136.145 36.1846 135.935 36.2051 135.707 36.2051C135.183 36.2051 134.764 36.0456 134.449 35.7266C134.139 35.4076 133.984 34.9062 133.984 34.2227ZM138.154 36V28.8086H139.303L139.357 29.7314H139.398C139.658 29.4033 139.975 29.1458 140.349 28.959C140.727 28.7676 141.144 28.6719 141.6 28.6719C142.324 28.6719 142.901 28.8792 143.329 29.2939C143.762 29.7041 143.979 30.3923 143.979 31.3584V36H142.707V31.3447C142.707 30.7705 142.577 30.3604 142.317 30.1143C142.062 29.8636 141.698 29.7383 141.224 29.7383C140.818 29.7383 140.46 29.8477 140.15 30.0664C139.84 30.2852 139.599 30.5677 139.426 30.9141V36H138.154ZM145.995 36V28.8086H147.267V36H145.995ZM145.838 26.6348C145.838 26.4206 145.906 26.2406 146.043 26.0947C146.18 25.9489 146.376 25.876 146.631 25.876C146.886 25.876 147.082 25.9489 147.219 26.0947C147.355 26.2406 147.424 26.4206 147.424 26.6348C147.424 26.849 147.355 27.029 147.219 27.1748C147.082 27.3206 146.886 27.3936 146.631 27.3936C146.376 27.3936 146.18 27.3206 146.043 27.1748C145.906 27.029 145.838 26.849 145.838 26.6348ZM148.921 32.5137V32.2949C148.921 31.2103 149.215 30.3239 149.803 29.6357C150.395 28.9476 151.209 28.6035 152.243 28.6035C153.2 28.6035 153.927 28.8633 154.424 29.3828C154.921 29.8978 155.169 30.4743 155.169 31.1123V31.1465H153.938V31.1123C153.938 30.7249 153.804 30.3831 153.535 30.0869C153.266 29.7907 152.836 29.6426 152.243 29.6426C151.55 29.6426 151.04 29.9001 150.712 30.415C150.384 30.9255 150.22 31.5521 150.22 32.2949V32.5137C150.22 33.2565 150.384 33.8854 150.712 34.4004C151.04 34.9108 151.55 35.166 152.243 35.166C152.836 35.166 153.266 35.0179 153.535 34.7217C153.804 34.4255 153.938 34.0837 153.938 33.6963V33.6621H155.169V33.6963C155.169 34.3343 154.921 34.9131 154.424 35.4326C153.927 35.9476 153.2 36.2051 152.243 36.2051C151.209 36.2051 150.395 35.861 149.803 35.1729C149.215 34.4847 148.921 33.5983 148.921 32.5137ZM156.256 33.8809C156.256 33.1517 156.545 32.5843 157.124 32.1787C157.703 31.7731 158.439 31.5703 159.332 31.5703H160.959V31.0781C160.959 30.6452 160.847 30.2943 160.624 30.0254C160.401 29.752 160.016 29.6152 159.469 29.6152C158.922 29.6152 158.53 29.7292 158.293 29.957C158.061 30.1803 157.944 30.4401 157.944 30.7363V30.7705H156.68V30.7363C156.68 30.1667 156.933 29.6699 157.438 29.2461C157.949 28.8177 158.637 28.6035 159.503 28.6035C160.369 28.6035 161.039 28.8109 161.513 29.2256C161.991 29.6403 162.23 30.2578 162.23 31.0781V34.3594C162.23 34.6556 162.253 34.9359 162.299 35.2002C162.344 35.46 162.408 35.6901 162.49 35.8906V36H161.26C161.196 35.8861 161.137 35.738 161.082 35.5557C161.032 35.3734 161 35.1911 160.986 35.0088C160.818 35.305 160.544 35.5671 160.166 35.7949C159.792 36.0228 159.309 36.1367 158.717 36.1367C158.033 36.1367 157.452 35.943 156.974 35.5557C156.495 35.1683 156.256 34.61 156.256 33.8809ZM157.527 33.8125C157.527 34.2227 157.646 34.5439 157.883 34.7764C158.12 35.0088 158.489 35.125 158.99 35.125C159.492 35.125 159.945 34.9518 160.351 34.6055C160.756 34.2591 160.959 33.8923 160.959 33.5049V32.4727H159.469C158.831 32.4727 158.348 32.5934 158.02 32.835C157.691 33.0765 157.527 33.4023 157.527 33.8125ZM164.295 35.2959C164.295 35.0589 164.37 34.8584 164.521 34.6943C164.675 34.5257 164.896 34.4414 165.184 34.4414C165.471 34.4414 165.689 34.5257 165.84 34.6943C165.995 34.8584 166.072 35.0589 166.072 35.2959C166.072 35.5329 165.995 35.7357 165.84 35.9043C165.689 36.0684 165.471 36.1504 165.184 36.1504C164.896 36.1504 164.675 36.0684 164.521 35.9043C164.37 35.7357 164.295 35.5329 164.295 35.2959ZM167.61 32.5137V32.2949C167.61 31.2103 167.904 30.3239 168.492 29.6357C169.085 28.9476 169.898 28.6035 170.933 28.6035C171.89 28.6035 172.617 28.8633 173.113 29.3828C173.61 29.8978 173.858 30.4743 173.858 31.1123V31.1465H172.628V31.1123C172.628 30.7249 172.493 30.3831 172.225 30.0869C171.956 29.7907 171.525 29.6426 170.933 29.6426C170.24 29.6426 169.729 29.9001 169.401 30.415C169.073 30.9255 168.909 31.5521 168.909 32.2949V32.5137C168.909 33.2565 169.073 33.8854 169.401 34.4004C169.729 34.9108 170.24 35.166 170.933 35.166C171.525 35.166 171.956 35.0179 172.225 34.7217C172.493 34.4255 172.628 34.0837 172.628 33.6963V33.6621H173.858V33.6963C173.858 34.3343 173.61 34.9131 173.113 35.4326C172.617 35.9476 171.89 36.2051 170.933 36.2051C169.898 36.2051 169.085 35.861 168.492 35.1729C167.904 34.4847 167.61 33.5983 167.61 32.5137ZM174.911 32.5137V32.2949C174.911 31.2103 175.219 30.3239 175.834 29.6357C176.449 28.9476 177.272 28.6035 178.302 28.6035C179.332 28.6035 180.154 28.9476 180.77 29.6357C181.385 30.3239 181.692 31.2103 181.692 32.2949V32.5137C181.692 33.5983 181.385 34.4847 180.77 35.1729C180.154 35.861 179.332 36.2051 178.302 36.2051C177.272 36.2051 176.449 35.861 175.834 35.1729C175.219 34.4847 174.911 33.5983 174.911 32.5137ZM176.21 32.2949V32.5137C176.21 33.2565 176.385 33.8854 176.736 34.4004C177.087 34.9108 177.609 35.166 178.302 35.166C178.994 35.166 179.516 34.9108 179.867 34.4004C180.218 33.8854 180.394 33.2565 180.394 32.5137V32.2949C180.394 31.5521 180.218 30.9255 179.867 30.415C179.516 29.9001 178.994 29.6426 178.302 29.6426C177.609 29.6426 177.087 29.9001 176.736 30.415C176.385 30.9255 176.21 31.5521 176.21 32.2949ZM183.285 36V28.8086H184.434L184.488 29.7314H184.529C184.785 29.4079 185.092 29.1504 185.452 28.959C185.817 28.7676 186.22 28.6719 186.662 28.6719C187.145 28.6719 187.562 28.7676 187.913 28.959C188.264 29.1504 188.531 29.4603 188.713 29.8887H188.754C189.055 29.4603 189.387 29.1504 189.752 28.959C190.117 28.7676 190.536 28.6719 191.01 28.6719C191.757 28.6719 192.34 28.8792 192.76 29.2939C193.179 29.7041 193.389 30.3923 193.389 31.3584V36H192.117V31.3447C192.117 30.7705 191.994 30.3604 191.748 30.1143C191.502 29.8636 191.153 29.7383 190.702 29.7383C190.31 29.7383 189.966 29.8477 189.67 30.0664C189.378 30.2852 189.146 30.5677 188.973 30.9141V36H187.701V31.3447C187.701 30.7705 187.578 30.3604 187.332 30.1143C187.086 29.8636 186.737 29.7383 186.286 29.7383C185.894 29.7383 185.55 29.8477 185.254 30.0664C184.962 30.2852 184.73 30.5677 184.557 30.9141V36H183.285Z" fill="#414141"/>
<defs>
<filter id="filter0_dd_10447_37517" x="0" y="0" width="62" height="62" filterUnits="userSpaceOnUse" color-interpolation-filters="sRGB">
<feFlood flood-opacity="0" result="BackgroundImageFix"/>
<feColorMatrix in="SourceAlpha" type="matrix" values="0 0 0 0 0 0 0 0 0 0 0 0 0 0 0 0 0 0 127 0" result="hardAlpha"/>
<feOffset dx="5" dy="5"/>
<feGaussianBlur stdDeviation="5"/>
<feComposite in2="hardAlpha" operator="out"/>
<feColorMatrix type="matrix" values="0 0 0 0 0.7625 0 0 0 0 0.7625 0 0 0 0 0.7625 0 0 0 0.5 0"/>
<feBlend mode="normal" in2="BackgroundImageFix" result="effect1_dropShadow_10447_37517"/>
<feColorMatrix in="SourceAlpha" type="matrix" values="0 0 0 0 0 0 0 0 0 0 0 0 0 0 0 0 0 0 127 0" result="hardAlpha"/>
<feOffset dx="-5" dy="-5"/>
<feGaussianBlur stdDeviation="5"/>
<feComposite in2="hardAlpha" operator="out"/>
<feColorMatrix type="matrix" values="0 0 0 0 1 0 0 0 0 1 0 0 0 0 1 0 0 0 1 0"/>
<feBlend mode="normal" in2="effect1_dropShadow_10447_37517" result="effect2_dropShadow_10447_37517"/>
<feBlend mode="normal" in="SourceGraphic" in2="effect2_dropShadow_10447_37517" result="shape"/>
</filter>
<linearGradient id="paint0_linear_10447_37517" x1="15" y1="15" x2="53.6098" y2="31.8927" gradientUnits="userSpaceOnUse">
<stop stop-color="#E3E8EC"/>
<stop offset="1" stop-color="white"/>
</linearGradient>
<clipPath id="clip0_10447_37517">
<rect width="18" height="18" fill="white" transform="translate(22 22)"/>
</clipPath>
</defs>
</svg>
